<?xml version="1.0" standalone="no"?>
<!DOCTYPE svg PUBLIC "-//W3C//DTD SVG 20010904//EN"
 "http://www.w3.org/TR/2001/REC-SVG-20010904/DTD/svg10.dtd">
<svg version="1.0" xmlns="http://www.w3.org/2000/svg"
 width="300.000000pt" height="300.000000pt" viewBox="0 0 300.000000 300.000000"
 preserveAspectRatio="xMidYMid meet">

<g transform="translate(0.000000,300.000000) scale(0.100000,-0.100000)"
fill="#000000" stroke="none">
<path d="M1199 2951 l-23 -31 -11 27 -12 28 -16 -38 c-9 -21 -30 -55 -46 -76
-31 -39 -41 -77 -27 -100 7 -11 5 -13 -10 -7 -10 5 -28 11 -39 14 -16 4 -18 3
-9 -9 6 -8 14 -31 18 -51 5 -30 3 -37 -10 -40 -12 -2 0 -14 37 -37 43 -27 64
-34 104 -34 57 1 75 -10 75 -44 0 -28 -23 -40 -53 -25 -54 25 -95 40 -125 47
l-34 7 27 -47 c54 -97 76 -115 145 -115 29 0 43 -6 54 -22 21 -30 20 -41 -3
-29 -26 15 -91 11 -91 -5 0 -20 27 -42 59 -49 16 -3 32 -12 34 -19 8 -21 60
-26 110 -11 41 12 54 12 97 -1 43 -13 56 -13 98 -1 40 12 55 12 101 0 42 -10
62 -11 88 -2 18 6 33 14 33 19 0 4 15 13 33 20 l32 11 -29 24 c-24 19 -34 22
-49 13 -17 -9 -19 -7 -15 9 3 13 -2 24 -14 32 -10 6 -16 16 -13 21 3 5 0 8 -7
5 -7 -3 -20 -1 -28 5 -13 8 -13 11 -1 22 9 8 11 9 7 1 -3 -6 -2 -14 3 -17 5
-4 8 0 7 6 -3 20 -16 38 -27 38 -6 0 -7 -5 -3 -11 3 -6 -8 -3 -25 5 -25 13
-29 14 -25 2 3 -8 1 -17 -5 -21 -12 -7 -15 -74 -3 -91 13 -19 72 -37 107 -31
25 4 35 2 35 -7 0 -21 -40 -27 -101 -14 -39 8 -67 8 -96 1 -28 -7 -60 -7 -99
0 -42 7 -71 6 -105 -2 -51 -13 -99 -6 -99 15 0 10 8 12 31 7 17 -3 48 0 69 7
34 11 41 18 46 49 8 42 -22 107 -49 105 -9 -1 -17 3 -18 10 -1 14 -17 -34 -18
-56 -1 -10 6 -18 14 -18 16 0 30 -42 21 -65 -13 -35 -66 -24 -66 13 0 8 -7 24
-17 34 -15 17 -15 19 1 37 10 11 15 25 10 32 -4 8 -3 10 4 5 8 -5 12 4 12 28
0 20 -4 36 -8 36 -5 0 -8 10 -8 22 1 19 -7 23 -61 33 -35 6 -66 15 -70 20 -5
4 10 4 32 -1 22 -4 54 -8 70 -8 17 -1 33 -5 36 -9 4 -5 29 -10 57 -10 27 -1
48 -6 44 -11 -3 -5 5 -7 16 -4 29 8 28 0 0 -13 -21 -9 -21 -9 5 -6 15 3 31 -1
35 -7 3 -6 10 -51 13 -101 l7 -90 -1 115 c-1 63 3 124 8 135 8 17 7 18 -7 5
-9 -8 -13 -19 -11 -24 3 -5 0 -7 -8 -4 -8 3 -14 10 -14 16 0 5 -4 14 -9 19 -5
4 -6 3 -3 -3 5 -8 -2 -11 -17 -10 -17 1 -23 6 -21 18 2 10 -1 21 -7 24 -7 4
-8 2 -4 -4 11 -18 -3 -14 -51 14 -24 14 -41 30 -37 36 4 6 -2 5 -16 -2 -21
-11 -19 -13 37 -40 32 -16 52 -29 45 -29 -7 -1 -26 6 -43 14 -16 9 -35 13 -41
9 -6 -4 17 -16 52 -26 34 -11 60 -22 57 -25 -3 -3 -37 5 -76 17 -39 12 -76 18
-83 14 -7 -4 -10 -3 -5 1 4 5 -5 14 -20 21 l-28 13 35 -2 c19 -1 38 -6 41 -11
4 -5 12 -5 19 -1 7 4 -6 16 -37 30 -48 23 -47 34 1 16 31 -13 55 9 31 29 -8 7
-15 21 -15 30 0 10 -5 20 -12 22 -8 3 -2 17 15 39 23 30 25 40 17 67 -5 20 -5
30 1 27 15 -10 10 8 -10 34 l-18 24 -24 -32z m51 -226 c0 -11 -19 -4 -41 15
l-24 21 33 -16 c17 -8 32 -18 32 -20z"/>
<path d="M1745 2940 c-18 -40 -18 -40 8 -90 16 -31 22 -50 14 -50 -7 0 -6 -4
3 -10 10 -6 11 -10 3 -10 -7 0 -13 -7 -13 -16 0 -8 3 -13 8 -11 4 3 7 -10 8
-28 0 -35 31 -115 48 -127 13 -9 66 1 93 18 26 16 57 74 67 123 6 35 8 34 -41
14 -10 -4 -11 3 -7 26 5 26 1 41 -25 76 -17 24 -40 63 -51 87 -18 42 -19 42
-25 15 -9 -33 -17 -34 -41 -2 -10 14 -21 25 -25 25 -3 0 -14 -18 -24 -40z
m123 -162 c28 -28 3 -85 -32 -72 -22 8 -31 50 -16 69 15 18 32 19 48 3z"/>
<path d="M1750 2665 c0 -8 -10 -35 -22 -60 -12 -24 -20 -47 -17 -49 2 -2 16
-7 32 -11 23 -6 27 -4 27 14 0 11 6 26 14 33 12 11 11 19 -5 51 -21 39 -29 46
-29 22z"/>
<path d="M1486 2628 c3 -5 10 -6 15 -3 13 9 11 12 -6 12 -8 0 -12 -4 -9 -9z"/>
<path d="M1481 2583 c-1 -24 3 -33 15 -33 8 0 36 -12 62 -27 36 -21 43 -23 32
-8 -14 17 -14 18 8 6 12 -6 26 -10 30 -7 4 3 14 0 22 -6 12 -8 11 -8 -5 -3
-11 3 -16 3 -12 -2 12 -12 68 -12 61 -1 -4 6 1 8 12 5 47 -15 74 -15 30 -1
-35 11 -45 18 -35 25 10 6 9 8 -6 8 -11 0 -38 4 -60 10 -33 8 -43 7 -59 -7
-17 -15 -19 -15 -13 -1 4 13 1 16 -15 11 -20 -5 -20 -4 -3 24 l17 29 -20 -24
c-23 -28 -48 -23 -55 11 -3 17 -5 15 -6 -9z"/>
<path d="M1338 2583 c6 -2 18 -2 25 0 6 3 1 5 -13 5 -14 0 -19 -2 -12 -5z"/>
<path d="M1505 2580 c-3 -5 -1 -10 4 -10 6 0 11 5 11 10 0 6 -2 10 -4 10 -3 0
-8 -4 -11 -10z"/>
<path d="M1890 2557 c-57 -19 -61 -22 -35 -25 32 -4 60 -22 35 -22 -13 0 -13
-2 -1 -9 12 -8 12 -12 2 -24 -7 -10 -8 -18 -2 -21 10 -7 37 28 65 81 26 52 27
51 -64 20z"/>
<path d="M1710 2486 c0 -2 7 -7 16 -10 8 -3 12 -2 9 4 -6 10 -25 14 -25 6z"/>
<path d="M1810 2440 c8 -5 20 -10 25 -10 6 0 3 5 -5 10 -8 5 -19 10 -25 10 -5
0 -3 -5 5 -10z"/>
<path d="M1873 2411 c0 -11 5 -18 9 -15 4 3 5 11 1 19 -7 21 -12 19 -10 -4z"/>
<path d="M1829 2364 c15 -11 26 -13 33 -6 6 6 6 12 -3 17 -8 5 -10 4 -5 -3 4
-7 3 -12 -3 -12 -5 0 -13 5 -16 10 -3 6 -11 10 -18 10 -6 0 -1 -7 12 -16z"/>
<path d="M1451 2349 c13 -8 88 -14 78 -5 -2 2 -24 6 -48 9 -29 4 -40 2 -30 -4z"/>
<path d="M1240 2259 c19 -16 35 -20 70 -17 25 3 54 8 64 13 18 8 19 5 13 -30
-4 -21 -13 -43 -22 -47 -8 -5 -15 -15 -15 -22 0 -8 -25 -13 -85 -14 -83 -3
-91 0 -86 31 2 11 -27 9 -34 -3 -4 -6 -1 -9 6 -8 6 2 14 -3 16 -9 5 -15 -19
-17 -32 -4 -6 6 -10 -5 -10 -29 -1 -24 -9 -48 -20 -62 -15 -17 -16 -19 -3 -9
15 11 19 11 25 -4 4 -13 -2 -25 -21 -42 -16 -13 -26 -27 -23 -30 3 -3 13 2 22
11 22 22 34 20 28 -4 -6 -23 -21 -36 -48 -43 -16 -4 -15 -5 6 -6 27 -1 69 28
69 47 0 6 5 14 11 18 8 5 10 -3 7 -25 -6 -39 2 -39 45 -1 42 36 47 37 47 6 0
-16 -7 -26 -22 -30 -18 -4 -20 -8 -10 -18 19 -19 15 -26 -23 -44 -41 -19 -59
-46 -50 -74 5 -17 7 -17 30 6 31 31 85 34 85 3 0 -13 -11 -25 -35 -35 -31 -12
-35 -19 -35 -49 0 -30 -3 -35 -24 -35 -22 0 -24 -5 -30 -67 -9 -84 -27 -138
-45 -138 -8 0 -20 16 -27 35 -15 42 -18 180 -4 180 21 0 50 41 50 70 0 33 -30
99 -63 140 -19 24 -20 24 -14 3 3 -15 -3 -31 -20 -49 -13 -14 -38 -56 -55 -92
-26 -56 -32 -81 -36 -161 -4 -89 8 -176 33 -234 7 -16 5 -16 -19 -6 -34 16
-41 52 -41 219 0 134 0 136 33 195 18 34 34 78 36 99 2 24 11 43 25 52 25 18
46 56 55 103 5 29 4 32 -12 25 -9 -4 -34 -8 -55 -8 -36 0 -38 -1 -35 -30 3
-28 0 -31 -24 -29 -25 2 -27 -1 -21 -29 7 -36 -12 -32 -27 6 -7 17 -9 15 -9
-17 -1 -21 4 -47 10 -59 14 -25 6 -33 -20 -18 -28 14 -28 -2 0 -46 11 -19 17
-34 12 -34 -13 0 -27 13 -47 43 -24 39 -31 28 -12 -18 9 -21 16 -42 16 -47 0
-16 -39 12 -55 40 l-16 27 5 -33 c3 -19 15 -47 27 -63 29 -41 17 -47 -37 -20
-26 12 -48 20 -51 18 -6 -7 25 -79 44 -99 15 -17 15 -18 -3 -18 -11 0 -36 11
-56 25 -31 21 -35 22 -31 6 2 -9 20 -35 39 -57 l35 -39 -35 -3 c-19 -2 -49 4
-65 13 -19 9 -31 11 -31 5 0 -13 41 -55 61 -62 11 -4 12 -8 2 -19 -27 -28 -10
-28 47 1 33 16 68 30 78 30 25 0 46 -25 38 -45 -9 -24 -67 -54 -119 -61 -38
-5 -45 -9 -36 -20 6 -8 18 -14 26 -14 32 0 0 -18 -44 -25 -49 -8 -48 -10 12
-30 18 -6 16 -9 -15 -25 l-35 -19 32 -1 c42 0 50 -16 22 -46 l-23 -24 35 11
c19 7 43 18 54 26 27 18 35 16 35 -7 0 -10 -14 -35 -31 -55 -35 -39 -33 -41
18 -20 47 20 48 20 20 -17 -42 -57 -42 -64 1 -25 71 63 78 44 22 -60 -15 -29
-25 -53 -20 -53 4 0 31 25 60 56 29 30 54 53 56 51 3 -2 -5 -25 -16 -51 l-20
-47 30 21 c17 12 46 42 65 67 41 53 46 48 10 -12 l-24 -42 26 5 c26 5 26 5 21
-52 -3 -39 -1 -53 6 -46 20 20 46 11 46 -15 0 -25 -2 -26 -57 -23 -53 3 -59 6
-73 33 l-15 30 -3 -42 c-3 -34 -8 -43 -32 -53 -16 -6 -37 -21 -47 -32 -17 -19
-17 -19 10 -13 44 11 77 -2 77 -30 0 -18 -6 -24 -27 -27 -32 -3 -100 30 -107
52 -2 8 -4 5 -5 -7 -1 -22 -31 -34 -31 -13 0 7 -8 6 -22 -2 -13 -7 -26 -12
-29 -11 -3 1 -6 -3 -7 -10 -7 -56 -16 -73 -45 -87 -17 -8 -33 -21 -35 -29 -3
-7 5 -4 17 8 25 25 46 28 37 5 -3 -9 -6 -21 -6 -29 0 -16 -48 -26 -54 -11 -2
6 -5 1 -5 -10 -1 -12 6 -27 14 -34 13 -11 14 -10 9 4 -3 9 -2 16 4 16 6 0 18
3 28 7 11 4 15 3 11 -4 -4 -6 -1 -14 5 -16 10 -4 10 -8 -1 -15 -23 -16 9 -159
48 -217 17 -25 31 -52 31 -59 0 -18 -38 -160 -61 -228 -10 -32 -19 -62 -19
-68 0 -14 41 15 104 74 l49 46 16 -23 c21 -30 81 -91 86 -86 2 2 -3 31 -11 64
-7 33 -14 77 -14 98 0 35 2 38 23 31 52 -16 121 -58 202 -123 114 -92 178
-124 249 -125 80 -1 96 17 96 106 0 70 13 84 25 28 8 -39 17 -38 35 3 l13 32
6 -66 c7 -76 19 -94 65 -103 74 -14 163 26 286 130 62 51 149 103 198 118 20
7 22 4 22 -31 0 -21 -6 -66 -14 -100 -7 -35 -9 -63 -5 -63 8 0 72 70 88 96 6
12 14 15 18 9 17 -22 135 -125 143 -125 5 0 -4 39 -21 87 -16 47 -35 118 -43
157 l-15 71 29 45 c31 49 60 137 60 181 0 15 6 30 13 32 6 3 2 6 -10 6 -30 1
-29 13 2 28 27 12 41 2 29 -19 -5 -9 -2 -9 9 1 23 18 21 54 -3 82 l-20 24 15
-30 c14 -27 13 -30 -3 -34 -9 -2 -20 -8 -23 -13 -4 -6 -8 8 -11 31 -2 22 1 41
6 41 5 0 1 7 -10 15 -10 8 -16 15 -11 15 12 0 -18 53 -43 75 -16 14 -24 16
-27 8 -6 -16 -33 -17 -33 -2 0 6 -19 0 -42 -13 -50 -27 -98 -26 -98 1 0 30 26
44 66 38 35 -6 36 -5 19 13 -9 10 -30 24 -46 30 -25 11 -29 18 -29 54 l0 41
-20 -32 c-18 -31 -23 -33 -75 -33 -49 0 -55 2 -55 20 0 25 25 37 43 21 11 -9
13 0 9 46 -5 56 -5 56 21 51 l26 -5 -24 42 c-28 46 -30 55 -15 55 6 0 10 -6
10 -14 0 -16 98 -121 106 -114 2 3 -4 25 -15 49 -11 24 -18 45 -17 47 2 1 29
-23 61 -55 31 -32 55 -51 52 -43 -3 8 -17 42 -31 75 -14 33 -23 61 -21 64 6 5
50 -25 75 -51 28 -31 25 -12 -5 28 -33 43 -32 46 11 28 46 -19 51 -14 20 19
-25 27 -42 65 -33 73 3 3 19 -2 36 -10 17 -9 42 -21 57 -26 l26 -10 -21 26
c-25 32 -20 44 22 44 l32 1 -35 19 c-31 16 -33 19 -15 25 60 20 61 22 12 30
-44 7 -76 25 -44 25 8 0 20 7 27 15 10 13 9 15 -11 15 -43 0 -101 21 -126 46
-19 19 -22 28 -13 44 15 28 40 25 111 -11 60 -30 84 -34 54 -9 -19 16 -19 30
-1 30 14 0 56 45 56 61 0 4 -12 1 -27 -7 -16 -7 -46 -14 -67 -14 l-40 0 26 28
c31 33 58 73 58 85 0 5 -15 -2 -34 -17 -19 -14 -45 -26 -57 -26 -21 0 -21 1
-6 18 14 15 47 83 47 96 0 3 -19 -4 -42 -14 -71 -32 -83 -27 -48 22 16 22 30
50 30 61 0 16 -5 14 -30 -13 -17 -18 -33 -31 -35 -28 -3 3 2 24 10 48 20 55
19 73 -2 35 -16 -30 -41 -54 -56 -55 -4 0 5 18 19 40 30 44 27 58 -6 40 -25
-13 -39 -5 -22 12 7 7 12 30 12 51 l0 39 -20 -23 -19 -24 6 40 c6 36 5 39 -10
26 -25 -20 -45 -8 -40 26 5 28 3 30 -25 25 -16 -2 -39 1 -51 7 -19 11 -21 9
-21 -14 0 -40 26 -92 54 -110 19 -13 26 -26 26 -51 0 -19 14 -60 30 -92 37
-69 54 -170 45 -262 -10 -104 -24 -146 -50 -158 l-24 -11 17 42 c12 31 16 77
16 177 l1 135 -38 73 c-21 40 -44 75 -52 79 -8 3 -15 16 -15 30 0 22 -2 24
-16 12 -23 -19 -64 -108 -64 -138 1 -30 17 -54 43 -64 35 -13 14 -222 -23
-222 -22 0 -39 60 -39 138 l-1 67 -30 0 c-28 0 -30 3 -30 35 0 29 -5 37 -27
46 -51 19 -59 59 -13 59 20 0 40 -9 56 -25 19 -19 26 -22 30 -10 13 33 -21 75
-79 99 -9 3 -8 7 3 15 13 10 12 14 -9 30 -17 13 -22 24 -17 36 6 17 9 16 34
-6 15 -13 21 -17 15 -9 -19 20 -16 30 8 30 16 0 20 -5 17 -27 -2 -14 2 -28 9
-30 9 -3 11 4 7 26 -4 20 -2 31 5 31 6 0 11 -7 11 -15 0 -25 38 -55 68 -54 20
1 22 2 7 6 -29 7 -45 23 -45 44 0 23 8 24 32 2 17 -15 18 -14 17 18 -1 29 -2
30 -8 11 -6 -24 -6 -24 -24 -4 -23 25 -13 59 12 40 14 -11 14 -10 -1 7 -9 11
-19 37 -21 58 -2 20 -7 40 -12 44 -4 5 -5 2 -1 -4 5 -9 0 -13 -14 -13 -14 0
-19 4 -14 13 6 9 4 9 -7 1 -14 -12 -139 -17 -172 -8 -9 3 -15 10 -12 15 4 5 2
9 -4 9 -10 0 -36 78 -28 86 2 3 16 0 31 -6 39 -15 88 -12 114 6 12 8 28 12 35
8 9 -5 9 -4 -1 7 -10 11 -17 10 -41 -4 -36 -21 -77 -22 -115 -2 -23 12 -31 13
-37 3 -11 -18 -177 -18 -188 0 -6 10 -15 9 -44 -3 -46 -19 -88 -19 -113 0 -29
22 -42 17 -14 -6z m410 -159 c0 -26 -38 -60 -67 -60 -28 0 -31 -34 -6 -69 16
-24 16 -24 -10 -17 -29 7 -37 -10 -16 -31 8 -8 5 -14 -12 -24 l-23 -12 22 -8
c28 -10 29 -45 2 -59 -14 -8 -20 -21 -20 -45 0 -28 -4 -35 -20 -35 -16 0 -20
7 -20 34 0 23 -7 38 -21 48 -25 16 -19 58 9 58 15 1 15 2 -1 14 -13 10 -16 21
-11 40 6 25 5 27 -21 20 -27 -7 -27 -6 -12 17 8 13 18 34 22 47 6 19 3 22 -22
22 -34 0 -73 32 -73 60 0 19 8 20 150 20 142 0 150 -1 150 -20z m-446 2 c2 -4
1 -14 -3 -21 -6 -9 -10 -7 -14 8 -5 20 7 29 17 13z m610 -7 c-4 -8 -8 -15 -10
-15 -2 0 -4 7 -4 15 0 8 4 15 10 15 5 0 7 -7 4 -15z m-584 -103 c0 -9 -21 -32
-30 -32 -3 0 -6 9 -7 20 -1 14 4 20 18 20 10 0 19 -4 19 -8z m435 -342 c17 0
14 -32 -4 -46 -16 -13 -32 -3 -44 29 -4 11 -2 17 8 17 8 0 15 6 16 13 0 10 2
10 6 0 2 -7 11 -13 18 -13z m-430 2 c25 -18 1 -58 -27 -47 -25 10 -14 55 12
55 3 0 10 -4 15 -8z m129 2 c19 -7 21 -31 3 -48 -10 -10 -17 -11 -28 -2 -16
13 -19 38 -4 48 12 9 10 9 29 2z m152 -2 c16 -10 13 -40 -4 -47 -18 -7 -37 6
-37 25 0 14 13 30 25 30 3 0 10 -4 16 -8z m278 2 c21 -8 21 -40 0 -48 -30 -12
-55 27 -29 46 12 9 10 9 29 2z m-88 -97 c-17 -12 -20 -32 -14 -72 2 -14 -3
-21 -19 -23 -13 -2 -23 1 -23 7 0 6 -12 11 -27 11 -24 1 -25 2 -10 11 9 5 17
17 17 25 0 35 20 54 57 54 32 0 35 -2 19 -13z m-367 -20 c-14 -9 -14 -12 3
-29 10 -10 21 -32 25 -48 5 -27 9 -30 45 -30 28 0 40 -5 45 -17 4 -10 11 -22
17 -26 8 -6 7 -10 -1 -14 -7 -2 -13 -14 -14 -26 l0 -22 -9 21 c-13 32 -36 36
-50 8 -8 -13 -18 -24 -24 -24 -6 0 -5 5 2 12 11 11 17 48 8 48 -20 0 -36 -16
-36 -35 0 -13 -4 -26 -9 -29 -5 -3 -8 6 -7 22 0 15 -3 27 -9 27 -5 0 -9 -9 -8
-20 3 -18 2 -18 -7 -3 -8 13 -6 26 5 48 16 31 12 70 -6 70 -5 0 -12 7 -16 16
-6 16 46 79 56 68 3 -4 -1 -11 -10 -17z m-101 -6 c15 -9 13 -29 -5 -49 -11
-11 -15 -11 -25 0 -19 20 -21 40 -6 49 7 5 15 9 18 9 3 0 11 -4 18 -9z m572
-18 c0 -20 -27 -46 -35 -33 -4 6 -10 8 -14 5 -5 -2 -8 6 -8 20 0 14 6 26 16
28 24 5 41 -3 41 -20z m-249 -51 c-16 -5 -41 5 -41 17 0 7 10 6 26 -1 15 -7
21 -14 15 -16z m-433 -19 c4 -10 6 -34 3 -53 -5 -31 -9 -35 -36 -35 -28 0 -30
3 -33 38 -2 21 2 45 9 53 16 19 47 18 57 -3z m800 8 c9 -5 12 -24 10 -52 -3
-42 -5 -44 -33 -44 -28 0 -30 3 -33 39 -2 21 -1 44 2 52 6 16 34 18 54 5z
m-690 -60 c15 -9 13 -29 -5 -49 -11 -11 -15 -11 -25 0 -19 20 -21 40 -6 49 7
5 15 9 18 9 3 0 11 -4 18 -9z m556 -7 c20 -8 21 -40 1 -48 -35 -13 -59 25 -30
46 12 9 10 9 29 2z m-196 -46 c10 -12 11 -18 4 -18 -7 0 -12 -6 -12 -14 0 -7
-6 -19 -14 -25 -12 -10 -15 -7 -18 21 -3 34 14 87 21 65 2 -7 10 -20 19 -29z
m-88 -53 c0 -18 5 -25 20 -25 11 0 20 -4 20 -10 0 -5 -9 -10 -20 -10 -17 0
-20 -7 -20 -45 0 -33 4 -45 15 -45 20 0 35 32 35 74 l0 36 79 0 80 0 7 -46 c8
-53 0 -144 -16 -190 l-11 -30 -197 0 -196 1 -13 25 c-8 15 -13 66 -13 133 l0
107 80 0 80 0 0 -38 c0 -39 14 -65 40 -74 12 -5 14 3 12 43 -3 40 -7 49 -23
49 -10 0 -19 5 -19 10 0 6 9 10 20 10 15 0 20 7 20 25 0 14 5 25 10 25 6 0 10
-11 10 -25z m-263 -45 c2 -21 -19 -32 -42 -24 -16 7 -16 32 0 50 13 15 40 -2
42 -26z m543 19 c0 -5 5 -7 10 -4 15 10 12 -25 -4 -41 -10 -9 -17 -10 -21 -4
-4 6 -10 8 -14 5 -5 -2 -8 6 -8 20 0 14 3 22 8 19 5 -3 9 0 9 5 0 6 5 11 10
11 6 0 10 -5 10 -11z m-662 -63 c3 -45 -6 -65 -30 -66 -17 0 -38 35 -38 64 0
38 17 58 45 54 16 -2 21 -12 23 -52z m801 40 c7 -8 11 -32 9 -53 -3 -35 -5
-38 -33 -38 -28 0 -30 3 -33 39 -2 21 -1 44 2 52 7 18 40 18 55 0z m-694 -104
c29 -21 5 -59 -30 -46 -18 7 -20 40 -2 47 17 8 21 8 32 -1z m559 2 c9 -3 16
-13 16 -21 0 -20 -27 -46 -35 -33 -4 6 -10 8 -14 5 -5 -2 -8 6 -8 20 0 14 3
22 8 19 5 -3 9 0 9 5 0 13 3 13 24 5z m-647 -140 c20 -41 9 -69 -27 -69 -18 0
-26 9 -36 39 -11 29 -11 42 -3 52 21 25 48 16 66 -22z m777 21 c3 -8 0 -32 -7
-53 -9 -29 -17 -37 -36 -37 -36 0 -46 24 -28 68 12 28 22 37 40 37 14 0 27 -7
31 -15z m-659 -13 c26 -19 1 -58 -29 -46 -23 9 -11 54 14 54 3 0 10 -4 15 -8z
m499 2 c19 -7 21 -31 3 -48 -10 -10 -17 -11 -28 -2 -16 13 -19 38 -4 48 12 9
10 9 29 2z m-239 -34 c19 -8 19 -9 -2 -9 -12 -1 -25 4 -28 9 -7 12 2 12 30 0z
m-172 -82 c4 -12 2 -18 -8 -18 -8 0 -15 -6 -16 -12 0 -10 -2 -10 -6 0 -2 6
-11 12 -18 12 -17 0 -14 32 4 46 16 13 32 3 44 -28z m342 22 c7 0 12 -8 11
-17 -2 -35 -62 -37 -62 -2 0 10 6 19 13 19 7 0 13 6 14 13 0 10 2 10 6 0 2 -7
11 -13 18 -13z m-111 -40 c6 0 12 -9 12 -20 0 -11 -6 -20 -13 -20 -7 0 -13 -6
-14 -12 0 -10 -2 -10 -6 0 -2 6 -10 12 -17 12 -6 0 -12 9 -12 20 0 11 6 20 13
20 7 0 13 6 14 13 0 10 2 10 6 0 2 -7 10 -13 17 -13z m-129 2 c29 -21 5 -59
-30 -46 -18 7 -20 40 -2 47 17 8 21 8 32 -1z m-217 -18 c33 -23 46 -52 31 -70
-17 -21 -41 -17 -72 11 -29 28 -34 44 -15 63 16 16 29 15 56 -4z m576 10 c27
-10 19 -51 -14 -74 -59 -42 -95 2 -44 53 28 29 33 30 58 21z m-826 -16 c35
-35 1 -59 -151 -103 -60 -17 -64 -23 -46 -57 9 -16 8 -35 -1 -75 -14 -58 -26
-67 -36 -28 -5 18 -13 25 -31 25 l-26 0 26 20 c14 11 32 20 41 20 9 0 16 5 16
11 0 6 -9 9 -20 6 -29 -7 -33 7 -10 36 11 14 20 33 20 44 0 13 8 18 30 19 17
1 38 9 48 18 10 9 30 16 45 16 17 0 33 10 47 30 24 33 30 36 48 18z m175 -36
c17 -25 41 -46 62 -53 19 -7 35 -16 35 -20 0 -4 -24 -10 -52 -14 -77 -10 -197
-51 -240 -80 -58 -39 -72 -130 -23 -149 29 -11 81 -6 101 9 16 13 16 14 1 9
-26 -9 -65 4 -77 26 -24 45 37 82 74 45 20 -20 42 -10 55 26 12 33 18 35 43
12 17 -15 18 -15 18 4 0 10 6 27 13 37 17 23 57 8 77 -29 13 -24 15 -25 27 -9
7 9 19 14 28 11 26 -11 17 -32 -20 -46 -21 -7 -41 -24 -50 -41 -24 -46 -18
-51 19 -14 21 21 44 34 60 34 14 0 29 7 34 16 11 20 66 11 59 -9 -2 -6 -58
-41 -125 -76 -108 -58 -122 -68 -122 -91 0 -28 16 -50 37 -50 7 0 13 11 13 25
0 17 5 25 18 25 9 0 22 10 27 23 8 18 18 22 52 21 32 0 44 4 48 17 9 28 37 33
56 8 l17 -22 6 21 c11 34 26 26 26 -14 0 -66 -31 -90 -81 -64 -16 9 -19 7 -19
-12 0 -13 -7 -32 -15 -42 -21 -28 -19 -56 4 -56 25 0 43 23 35 45 -6 15 -3 17
17 12 18 -5 28 -1 37 13 7 11 17 20 22 20 18 0 10 -31 -12 -50 -21 -17 -21
-20 -9 -72 19 -78 7 -112 -42 -116 -44 -4 -83 15 -167 83 -79 63 -117 87 -235
145 l-90 45 -6 156 c-3 86 -9 161 -12 167 -4 5 7 15 25 21 40 14 50 14 73 -3
16 -12 17 -16 6 -30 -17 -20 -8 -20 29 -1 35 18 60 52 60 82 0 25 27 56 44 50
6 -2 24 -22 39 -45z m757 2 c0 -33 26 -72 61 -90 34 -17 47 -18 31 -2 -18 18
-15 27 14 39 19 7 37 6 61 -2 29 -9 34 -15 28 -33 -4 -11 -10 -87 -12 -167
l-5 -145 -107 -53 c-59 -28 -138 -76 -177 -106 -116 -91 -146 -108 -196 -113
l-46 -4 -13 41 c-9 31 -9 47 -1 67 18 38 14 72 -8 86 -21 13 -28 48 -10 48 5
0 15 -9 22 -19 9 -14 19 -18 38 -15 23 5 26 3 25 -23 0 -22 5 -29 23 -31 26
-4 30 23 7 54 -8 10 -15 30 -15 43 0 20 -3 22 -12 13 -19 -19 -66 -15 -78 7
-14 26 -13 104 1 96 5 -4 15 -19 21 -33 l11 -27 6 24 c9 33 25 36 50 9 17 -17
30 -22 61 -19 35 2 40 0 46 -23 4 -17 13 -26 25 -26 14 0 19 -7 19 -25 0 -26
7 -29 34 -19 10 4 16 18 16 39 0 31 -5 35 -82 76 -74 38 -138 72 -161 86 -12
7 13 33 33 33 10 0 23 -7 30 -15 7 -8 21 -15 31 -15 10 0 34 -14 54 -31 19
-17 35 -26 35 -19 0 25 -22 51 -60 70 -43 22 -50 37 -24 47 10 4 20 -1 26 -11
8 -15 12 -14 30 9 42 54 88 53 88 -3 0 -24 1 -24 18 -9 25 23 31 21 43 -12 13
-36 36 -47 59 -26 23 21 57 19 70 -5 19 -36 -12 -70 -63 -70 -18 0 -19 -2 -7
-10 22 -14 83 -12 105 4 24 17 25 74 2 109 -24 37 -129 84 -237 105 l-95 19
37 17 c20 9 45 28 55 42 38 55 52 65 73 54 12 -6 20 -21 20 -36z m141 24 c15
-29 28 -38 55 -38 12 0 27 -7 34 -15 7 -8 27 -15 45 -15 24 0 34 -5 38 -20 3
-12 0 -20 -6 -20 -13 0 -103 28 -179 55 -49 17 -61 38 -36 63 18 18 36 14 49
-10z m-1285 -45 c-6 -14 -9 -14 -27 3 l-21 19 24 6 c25 6 33 -3 24 -28z m1478
6 c-14 -15 -19 -17 -26 -7 -15 24 -8 35 17 30 25 -4 25 -5 9 -23z m-806 -53
c11 -11 12 -18 2 -36 -10 -19 -17 -21 -48 -15 -60 11 -78 37 -47 69 17 17 68
7 93 -18z m216 9 c10 -27 -5 -45 -46 -56 -33 -8 -44 -8 -55 4 -18 18 -9 54 15
60 39 10 80 7 86 -8z m588 -52 c25 -22 23 -33 -7 -33 -14 0 -25 -4 -25 -10 0
-5 9 -10 20 -10 11 0 29 -9 40 -20 l20 -20 -24 0 c-17 0 -26 -7 -30 -25 -4
-14 -10 -25 -15 -25 -17 0 -28 110 -15 144 8 20 13 20 36 -1z"/>
<path d="M1670 1490 c0 -5 5 -10 11 -10 5 0 7 5 4 10 -3 6 -8 10 -11 10 -2 0
-4 -4 -4 -10z"/>
<path d="M1306 1511 c-4 -7 -5 -15 -2 -18 9 -9 19 4 14 18 -4 11 -6 11 -12 0z"/>
<path d="M1090 1425 c0 -8 5 -15 10 -15 6 0 10 7 10 15 0 8 -4 15 -10 15 -5 0
-10 -7 -10 -15z"/>
<path d="M1090 1379 c0 -11 5 -17 10 -14 6 3 10 13 10 21 0 8 -4 14 -10 14 -5
0 -10 -9 -10 -21z"/>
<path d="M1890 1425 c0 -9 5 -15 11 -13 6 2 11 8 11 13 0 5 -5 11 -11 13 -6 2
-11 -4 -11 -13z"/>
<path d="M1892 1386 c1 -10 8 -17 13 -17 15 1 12 24 -3 29 -9 3 -13 -2 -10
-12z"/>
<path d="M1480 1090 c-9 -6 -9 -13 2 -31 7 -13 14 -26 15 -28 1 -1 7 0 13 4 8
5 8 11 -1 21 -10 12 -10 14 1 12 7 -2 14 2 17 8 5 14 -30 24 -47 14z"/>
<path d="M1090 1215 c0 -8 5 -15 10 -15 6 0 10 7 10 15 0 8 -4 15 -10 15 -5 0
-10 -7 -10 -15z"/>
<path d="M1090 1170 c0 -11 5 -20 10 -20 6 0 10 9 10 20 0 11 -4 20 -10 20 -5
0 -10 -9 -10 -20z"/>
<path d="M1890 1215 c0 -9 5 -15 11 -13 6 2 11 8 11 13 0 5 -5 11 -11 13 -6 2
-11 -4 -11 -13z"/>
<path d="M1894 1176 c-8 -22 3 -33 18 -18 9 9 9 15 0 24 -9 9 -13 7 -18 -6z"/>
<path d="M1096 995 c4 -8 10 -15 15 -15 5 0 9 7 9 15 0 8 -7 15 -15 15 -9 0
-12 -6 -9 -15z"/>
<path d="M1112 959 c2 -7 10 -15 17 -17 8 -3 12 1 9 9 -2 7 -10 15 -17 17 -8
3 -12 -1 -9 -9z"/>
<path d="M1880 994 c0 -17 22 -14 28 4 2 7 -3 12 -12 12 -9 0 -16 -7 -16 -16z"/>
<path d="M1866 955 c-3 -9 0 -15 9 -15 8 0 15 7 15 15 0 8 -4 15 -9 15 -5 0
-11 -7 -15 -15z"/>
<path d="M1192 839 c2 -7 10 -15 17 -17 8 -3 12 1 9 9 -2 7 -10 15 -17 17 -8
3 -12 -1 -9 -9z"/>
<path d="M1230 806 c0 -9 7 -16 16 -16 9 0 14 5 12 12 -6 18 -28 21 -28 4z"/>
<path d="M1787 843 c-12 -11 -8 -23 8 -23 8 0 15 7 15 15 0 16 -12 20 -23 8z"/>
<path d="M1753 813 c-18 -6 -16 -23 1 -23 17 0 30 16 19 23 -5 2 -14 2 -20 0z"/>
<path d="M1360 740 c0 -5 7 -10 15 -10 8 0 15 5 15 10 0 6 -7 10 -15 10 -8 0
-15 -4 -15 -10z"/>
<path d="M1406 731 c-3 -5 0 -11 8 -14 15 -6 26 1 26 15 0 11 -27 10 -34 -1z"/>
<path d="M1617 744 c-4 -4 -4 -10 -1 -15 6 -10 34 0 34 12 0 10 -24 12 -33 3z"/>
<path d="M1572 729 c2 -6 8 -10 13 -10 5 0 11 4 13 10 2 6 -4 11 -13 11 -9 0
-15 -5 -13 -11z"/>
<path d="M1150 2230 c-9 -6 -10 -10 -3 -10 6 0 15 5 18 10 8 12 4 12 -15 0z"/>
<path d="M1306 2172 c-3 -5 1 -9 9 -9 8 0 12 4 9 9 -3 4 -7 8 -9 8 -2 0 -6 -4
-9 -8z"/>
<path d="M1675 2169 c-11 -16 -1 -19 13 -3 7 8 8 14 3 14 -5 0 -13 -5 -16 -11z"/>
<path d="M1730 2170 c0 -6 4 -9 9 -6 5 4 12 1 14 -4 3 -6 4 -5 3 2 -3 15 -26
23 -26 8z"/>
<path d="M618 805 c2 -14 6 -25 8 -25 2 0 4 11 4 25 0 14 -4 25 -9 25 -4 0 -6
-11 -3 -25z"/>
<path d="M2373 814 c-3 -8 -2 -19 3 -24 5 -5 9 1 9 16 0 28 -3 30 -12 8z"/>
<path d="M561 794 c0 -11 3 -14 6 -6 3 7 2 16 -1 19 -3 4 -6 -2 -5 -13z"/>
<path d="M2431 794 c0 -11 3 -14 6 -6 3 7 2 16 -1 19 -3 4 -6 -2 -5 -13z"/>
</g>
</svg>
